<?xml version="1.0" standalone="no"?> 
<!DOCTYPE svg PUBLIC "-//W3C//DTD SVG 1.1//EN" "http://www.w3.org/Graphics/SVG/1.1/DTD/svg11.dtd" >
<svg xmlns="http://www.w3.org/2000/svg">
<defs>
  <font id="theme-icons" horiz-adv-x="500">
    <font-face font-family="theme-icons"
      units-per-em="500" ascent="500"
      descent="0" />
    <missing-glyph horiz-adv-x="0" />
    <glyph glyph-name="arrow-down"
      unicode="&#xE001;"
      horiz-adv-x="500" d=" M269.4000000000001 74.9000000000001L391.5000000000001 198.7000000000001L418.9000000000001 170.9000000000001L250 -0.4000000000001L81.1 170.8999999999999L108.5 198.6999999999999L230.6 74.8999999999999V499.5999999999999H269.4V74.9000000000001z" />
    <glyph glyph-name="arrow-left"
      unicode="&#xE002;"
      horiz-adv-x="500" d=" M242.7 338.3L166.6 262.2L363.9 262.2L363.9 236.9L166.6 236.9L242.7 160.7L224.9 142.9L118.2 249.5L224.9 356.2z M7.5 249.5C7.5 115.8 116.3 7 250 7S492.5 115.8 492.5 249.5S383.7 492 250 492S7.5 383.2 7.5 249.5zM32.8 249.5C32.8 369.3 130.2 466.7 250 466.7C369.8 466.7 467.2 369.3 467.2 249.5C467.2 129.7 369.8 32.3 250 32.3C130.2 32.3 32.8 129.8 32.8 249.5z" />
    <glyph glyph-name="arrow-medium-right"
      unicode="&#xE003;"
      horiz-adv-x="500" d=" M299.9 394.2L423.7 270.4L-1 270.4L-1 231L423.7 231L299.9 107.2L327.7 79.4L499 250.7L327.7 422z" />
    <glyph glyph-name="arrow-right"
      unicode="&#xE004;"
      horiz-adv-x="500" d=" M257.3 338.3L333.4 262.2L136.1 262.2L136.1 236.9L333.4 236.9L257.3 160.7L275.1 142.9L381.8 249.5L275.1 356.2z M250 492C116.3 492 7.5 383.2 7.5 249.5S116.3 7.1 250 7.1S492.5 115.9 492.5 249.6S383.7 492 250 492zM250 32.3C130.2 32.3 32.8 129.7000000000001 32.8 249.5C32.8 369.3 130.2 466.7 250 466.7C369.8 466.7 467.2 369.3 467.2 249.5C467.2 129.8 369.8 32.3 250 32.3z" />
    <glyph glyph-name="arrow-thin-down"
      unicode="&#xE005;"
      horiz-adv-x="500" d=" M404.8 173.9C400.1 178.6 392.4000000000001 178.6 387.7 173.9L263.1 49.3V479.9C263.1 486.6 257.7000000000001 492 251.0000000000001 492C244.3000000000001 492 238.9000000000001 486.6 238.9000000000001 479.9V49.3L114.4 173.9C109.7 178.6 102 178.6 97.3 173.9S92.6 161.5 97.3 156.8L242.5 11.6C243.6 10.4999999999999 245 9.6 246.4 8.9999999999999C247.9 8.3999999999999 249.4 8.1 251 8.1C252.6 8.1 254.1 8.4 255.6 8.9999999999999C257.1 9.6 258.4 10.4999999999999 259.5 11.6L404.7 156.8C409.5 161.5 409.5 169.1 404.8 173.9z" />
    <glyph glyph-name="arrow-thin-right"
      unicode="&#xE006;"
      horiz-adv-x="500" d=" M326.1 403.8C321.4000000000001 399.1 321.4000000000001 391.4 326.1 386.7L450.7 262.1H20.1C13.4 262.1 8 256.7 8 250C8 243.3 13.4 237.9 20.1 237.9H450.7L326.1 113.4C321.4000000000001 108.7 321.4000000000001 101 326.1 96.3S338.5 91.6 343.2000000000001 96.3L488.4 241.5C489.5000000000001 242.6 490.4 243.8999999999999 491.0000000000001 245.4C492.2 248.3 492.2 251.7 491.0000000000001 254.6C490.4 256.0999999999999 489.5000000000001 257.4 488.4 258.5L343.2 403.7C338.6 408.4 331 408.6 326.2 403.9C326.2 403.8 326.2 403.8 326.1 403.8z" />
    <glyph glyph-name="arrows-up-down"
      unicode="&#xE007;"
      horiz-adv-x="500" d=" M208.4 279.9C178.5 310.6 148.7 342 119.5 372.3C118.1 372.4 118 373.8 116.1 373.5C82.3 338.5 45 299.5 11.4 265C7.4 261 -0.8 257.2 0.1 250H64.3V122H170.2C171 164.3 168.7 209.8 171.3 250.1H235.5C229.6 261.9 218 270.2 208.4 279.9z M434.8 248.8V378.1H328.9V248.9H296.3C287 248.9 269.5 252.1 263.7 248.9C260.5999999999999 247.2 288.5 221.1 290.7 218.8C318.5 190.3 337.8999999999999 169.3 366.2 140.3C369.8 136.6 380.5999999999999 125.2 380.8 125.2C385.8 125 403.1 148 411.2 156.4C444 189.9 472.3 216.2 500.1999999999999 248.8L434.8 248.8z" />
    <glyph glyph-name="booth"
      unicode="&#xE008;"
      horiz-adv-x="500" d=" M147.3 404H352.6V96H147.3V404z M44.7 362.9H126.8V137H44.7V362.9z M373.2 362.9H455.3V137H373.2V362.9z" />
    <glyph glyph-name="briefcase"
      unicode="&#xE009;"
      horiz-adv-x="500" d=" M366 368.5V469.8H134V368.5H0V30.3H500V368.5H366zM189.5 414.2H310.4V368.4H189.5V414.2z" />
    <glyph glyph-name="building"
      unicode="&#xE00A;"
      horiz-adv-x="500" d=" M468.8 250.1L406.2 250.1L406.2 62.4L343.7 62.4L343.7 250.1L281.2 250.1L281.2 62.4L218.8 62.4L218.8 250.1L156.2 250.1L156.2 62.4L93.7 62.4L93.7 250.1L31.2 250.1L31.2 62.4L0 62.4L0 -0.1L500 -0.1L500 62.4L468.8 62.4z M250 500.1L62.5 375L437.5 375z M0 343.8H500V281.4H0V343.8z" />
    <glyph glyph-name="check-circle"
      unicode="&#xE00B;"
      horiz-adv-x="500" d=" M250 458.3C135 458.3 41.7 365 41.7 250S135 41.7 250 41.7S458.3 135 458.3 250S365 458.3 250 458.3zM208.3 145.8L104.2 250L133.6 279.4L208.4 204.8L366.5 362.9L395.9 333.3L208.3 145.8z" />
    <glyph glyph-name="check-square"
      unicode="&#xE00C;"
      horiz-adv-x="500" d=" M0 500H500V0H0V500zM194.1 180.7000000000001L120.7 253.9000000000001L96.2 229.5000000000001L194.1 131.9000000000001L403.9000000000001 341.1000000000001L379.4000000000001 365.5000000000001L194.1 180.7000000000001z" />
    <glyph glyph-name="check"
      unicode="&#xE00D;"
      horiz-adv-x="500" d=" M159.1 142L39.8 258.4000000000001L0 219.5L159.1 64.3L500 396.8L460.2 435.7000000000001z" />
    <glyph glyph-name="checkbox"
      unicode="&#xE00E;"
      horiz-adv-x="500" d=" M440.2 495L381.2 427.5H0V0H427.6V362.4L499 448.7C480.9 461.8 463.5 475 440.2 495zM397.1 30.6H30.5V397.1H357.2L217.7 219.6L147.9 302.2000000000001C131.7 287.3 110.8 271.3 89.2 252.3L220.3 98.5L397.2 323.7V30.6z" />
    <glyph glyph-name="chevron-down"
      unicode="&#xE00F;"
      horiz-adv-x="500" d=" M441.2000000000001 406L250 213.2000000000001L58.8 406L0 346.5999999999999L250 94L500 346.5999999999999z" />
    <glyph glyph-name="chevron-left"
      unicode="&#xE010;"
      horiz-adv-x="500" d=" M408.4000000000001 58.8L212.7000000000001 250L408.4000000000001 441.2000000000001L348.0999999999999 500L91.6 250L348.0999999999999 0z" />
    <glyph glyph-name="chevron-right"
      unicode="&#xE011;"
      horiz-adv-x="500" d=" M91.6 441.2000000000001L287.3 250L91.6 58.8L151.9 0L408.4000000000001 250L151.9 500z" />
    <glyph glyph-name="chevron-up"
      unicode="&#xE012;"
      horiz-adv-x="500" d=" M58.8 94L250 286.8L441.2000000000001 94L500 153.4000000000001L250 406L0 153.4000000000001z" />
    <glyph glyph-name="clock"
      unicode="&#xE013;"
      horiz-adv-x="500" d=" M250.1 500C111.9 500 0 388.1 0 250.1S111.9 0.1 250.1 0.1C388.1 0.1 500 112 500 250.1S388.1 500 250.1 500zM250.1 54.4C141.9 54.4 54.4 142.1 54.4 250.1C54.4 358.1 141.9 445.7 249.9 445.7C250 445.7 250.1 445.7 250.1 445.7C358.1 445.7 445.7 358.2 445.7 250.1S358.1 54.4 250.1 54.4z M231 258L149.6 176.5L176.5 149.7L269 242.2L269 391.4L231 391.4z" />
    <glyph glyph-name="close-circle"
      unicode="&#xE014;"
      horiz-adv-x="500" d=" M250 458.3C134.8 458.3 41.7 365.2 41.7 250S134.8 41.7 250 41.7S458.3 134.8 458.3 250S365.2 458.3 250 458.3zM354.2 175.2L324.8 145.8L250 220.6L175.2 145.8L145.8 175.2L220.6 250L145.8 324.8L175.2 354.2000000000001L250 279.4000000000001L324.8 354.2000000000001L354.2 324.8000000000001L279.4 250L354.2 175.2z" />
    <glyph glyph-name="close-square"
      unicode="&#xE015;"
      horiz-adv-x="500" d=" M0 500H500V0H0V500zM365.3 342.0999999999999L342 365.3999999999999L249.9 273.3L157.8 365.3999999999999L134.5 342.0999999999999L226.6 249.9999999999999L134.5 157.8999999999999L157.8 134.5999999999999L249.9 226.7L342 134.5999999999999L365.3 157.8999999999999L273.2 249.9999999999999L365.3 342.0999999999999z" />
    <glyph glyph-name="close"
      unicode="&#xE016;"
      horiz-adv-x="500" d=" M499.8 449.5999999999999L449.5 500L250 300.4000000000001L50.4 499.8L0 449.5L199.6 250L0.2 50.4000000000001L50.5 0L250 199.5999999999999L449.5999999999999 0L500 50.4000000000001L300.4 250z" />
    <glyph glyph-name="contact-us-icon"
      unicode="&#xE017;"
      horiz-adv-x="500" d=" M413.9 213.4C379.6 225.9 371.4 230.1 371.4 230.1L371.1 258.7C371.1 258.7 383.9 267.3 388 294.2C396.1 292.2 404.3999999999999 304.6 404.8 311.1C405.3 317.4 403.8 334.9 393.9 333.3C395.9 346.5 397.4 358.4 396.6 364.6C394.1 387.8 368.1 412 328 412C288 412 262 387.8 259.4 364.7C258.7 358.5 260.2 346.6 262.2 333.4C252.4 335 250.7 317.5 251.3 311.2C251.7 304.6 260.2 292.2 268.2 294.3C272.1 267.3 285 258.8 285 258.8L284.7 230.2C284.7 230.2 276.7 225.9 242.3 213.5C208 201 173.4 192.3 162.9 178.4C153.8 165.9 156.6 88.1 156.6 88.1H328H499.6C499.6 88.1 502.3 165.9 493.1 178.4C482.8 192.2 448.2 201 413.9 213.4M136.1 205.7C131.5 199.5 111.1 187.3 114.5 88H0.4C0.4 88 -2.2 157.9 6.1 169.1C15.4 181.7000000000001 15.3 189.4 46.1 200.7000000000001C76.9 211.9 84.2 215.8000000000001 84.2 215.8000000000001L84.5 241.4000000000001C84.5 241.4000000000001 73 249.2000000000001 69.3 273.4000000000001C62.2 271.5000000000001 54.6 282.8000000000001 54.2 288.6000000000001C53.8 294.2000000000001 55.1 310.0000000000001 64 308.4000000000001C62.2 320.2000000000001 60.8 331.0000000000001 61.5 336.6000000000001C63.7 357.2000000000001 87 379.0000000000001 123 379.0000000000001S182.4 357.2000000000001 184.7 336.6000000000001C185.2 330.9000000000001 184 320.2000000000001 182.2 308.4000000000001C190.9 310.0000000000001 192.3 294.2000000000001 192 288.6000000000001C191.6 282.8000000000001 184 271.5000000000001 176.7 273.4000000000001C173.2 249.1000000000001 161.6 241.4000000000001 161.6 241.4000000000001L187.3 223.9000000000001C173.1 217.1 143.9 216.3 136.1 205.7" />
    <glyph glyph-name="ivhost-mark"
      unicode="&#xE018;"
      horiz-adv-x="500" d=" M249.8 495.5L249.8 342.1999999999998L35.7 342.1999999999998L35.7 281.3999999999997L463.9 281.3999999999997z M35.7 220.6999999999998L249.8 6.6000000000004L249.8 159.8999999999996L463.9 159.8999999999996L463.9 220.6999999999998z" />
    <glyph glyph-name="date"
      unicode="&#xE019;"
      horiz-adv-x="500" d=" M230.2 269.8H269.8V230.2H230.2V269.8z M309.4 269.8H349V230.2H309.4V269.8z M388.6 408.4H368.8V448H329.2V408.4H170.8V448H131.2V408.4H111.4C89.4 408.4 72 390.6 72 368.8L71.8 91.6C71.8 69.8 89.4 52 111.4 52H388.6C410.4000000000001 52 428.2000000000001 69.8 428.2000000000001 91.6V368.8C428.2 390.6 410.4 408.4 388.6 408.4zM388.6 91.6H111.4V309.4H388.6V91.6z M151 269.8H190.6V230.2H151V269.8z" />
    <glyph glyph-name="document-check"
      unicode="&#xE01A;"
      horiz-adv-x="500" d=" M59.3 77.9L59.3 439.8L225.2 439.8L237.4 427.3L237.4 349.3L314.2 349.3L326.5 336.7L326.5 174.5L385.8 234.8L385.8 361.8L249.8 500L0 500L0 17.7L237.8 17.7L178.9 77.9z M404.5 205.7L289.4 90.5L243.1 136.8L197.9 91.5L289.4 0L449.8 160.4z" />
    <glyph glyph-name="download-icon"
      unicode="&#xE01B;"
      horiz-adv-x="500" d=" M288.3 289.2L213.7 289.2L213.7 105.5L153.2 105.5L251 0.9L348.8 105.5L288.3 105.5z M48.3 499.1V152H168.9V194.6H88.3V394.8H411.7V194.7H331V152.1H451.6V499.1H48.3zM358.8 426.9C350.5 426.9 343.7 434 343.7 442.7C343.7 451.4 350.5 458.5 358.8 458.5C367.2 458.5 373.9000000000001 451.4 373.9000000000001 442.7C374 433.9 367.2 426.9 358.8 426.9zM399.1 426.9C390.7000000000001 426.9 384 434 384 442.7C384 451.4 390.7 458.5 399.1 458.5C407.5 458.5 414.2000000000001 451.4 414.2000000000001 442.7C414.3 433.9 407.5 426.9 399.1 426.9z" />
    <glyph glyph-name="email-share"
      unicode="&#xE01C;"
      horiz-adv-x="500" d=" M16.2 121.4V380.6C16.2 380.9 16.7 383.8 17.6 389.2L170.2 258.7L18 112.4C16.8 116.6 16.2 119.6 16.2 121.4zM36.4 407.2C38.5 408.1 41.1 408.5 44.1 408.5H454.9C457.6 408.5 460.3 408.1 463.0000000000001 407.2L310.0000000000001 276.2L289.8 260L249.8 227.1L209.7 260L189.5 276.2L36.4 407.2zM36.9 94.9L190.3 242L249.7 193.9L309.1 242L462.6 94.9C460.2 94 457.6 93.5 454.9 93.5H44.1C41.7 93.5 39.3 94 36.9 94.9zM329.4 258.6L481.5 389.1C482.4 386.4 482.9 383.6 482.9 380.5V121.3C482.9 118.6 482.4 115.6 481.5 112.3L329.4 258.6z" />
    <glyph glyph-name="email"
      unicode="&#xE01D;"
      horiz-adv-x="500" d=" M16.2 121.4V380.6C16.2 380.9 16.7 383.8 17.6 389.2L170.2 258.7L18 112.4C16.8 116.6 16.2 119.6 16.2 121.4zM36.4 407.2C38.5 408.1 41.1 408.5 44.1 408.5H454.9C457.6 408.5 460.3 408.1 463.0000000000001 407.2L310.0000000000001 276.2L289.8 260L249.8 227.1L209.7 260L189.5 276.2L36.4 407.2zM36.9 94.9L190.3 242L249.7 193.9L309.1 242L462.6 94.9C460.2 94 457.6 93.5 454.9 93.5H44.1C41.7 93.5 39.3 94 36.9 94.9zM329.4 258.6L481.5 389.1C482.4 386.4 482.9 383.6 482.9 380.5V121.3C482.9 118.6 482.4 115.6 481.5 112.3L329.4 258.6z" />
    <glyph glyph-name="facebook-circle"
      unicode="&#xE01E;"
      horiz-adv-x="500" d=" M250 500C111.9 500 0 387.8 0 249.6C0 127.5 87.3 25.8 202.8 3.7V166.5H146.6V231.7H202.8V279.8C202.8 335.6 236.8 366 286.5 366C310.3 366 330.8 364.2 336.7 363.4V305.1H302.2C275.2 305.1 269.9 292.3 269.9 273.3V231.6H334.4L326 166.4H270V0C398.7 10.2 500 118 500 249.5C500 387.8 388.0999999999999 500 250 500z" />
    <glyph glyph-name="facebook-share"
      unicode="&#xE01F;"
      horiz-adv-x="500" d=" M216.2 435.8C232.3 451.1 255.1 456.3 276.7 456.9C299.5 457.1 322.3 457 345.1 457C345.2000000000001 432.9 345.2000000000001 408.9 345.1 384.8C330.4000000000001 384.8 315.6 384.8 300.9000000000001 384.8C291.6 385.4 282.0000000000001 378.3 280.3 369C280.1 352.9 280.2 336.8 280.2 320.7C301.8 320.6 323.4 320.7 345 320.6C343.4 297.3 340.5 274.1 337.1 251.1C318 250.9 298.9000000000001 251.1 279.8 251C279.6 182.3 279.9000000000001 113.7 279.7 45C251.3 44.9 223 45.1 194.6 44.9C194.1 113.6 194.6 182.3 194.3 251C180.5 251.1 166.6 250.9 152.8 251.1C152.9 274.2 152.8 297.3 152.8 320.3C166.6 320.5 180.5 320.3 194.3 320.4C194.7 342.8 193.9 365.3 194.7 387.7C196.2 405.6 202.9 423.5 216.2 435.8z" />
    <glyph glyph-name="facebook-square"
      unicode="&#xE020;"
      horiz-adv-x="500" d=" M10.6 490L9.8 10C52.5 10 138 10 266.4000000000001 10V195.7H203.9V268H266.4000000000001V321.3C266.4000000000001 383.2000000000001 304.2000000000001 417 359.5 417C385.9 417 408.7 415.1 415.4 414.1V349.4H377C347 349.4 341.1 335.1 341.1 314.2V268.1H412.8L403.4000000000001 195.8H341.1V10.1C419.1 10.1 468.8 10.1 490.1 10V490C442.5 490 37 490 10.6 490z" />
    <glyph glyph-name="facebook"
      unicode="&#xE021;"
      horiz-adv-x="500" d=" M0.8 500L0 0C44.4 0 133.5 0 267.1 0V193.4H202V268.8H267.1V324.4C267.1 388.9 306.5 424.1 364 424.1C391.5 424.1 415.2 422.1 422.1 421.1V353.7H382.2000000000001C351.0000000000001 353.7 344.9000000000001 338.8 344.9000000000001 317V269H419.5L409.8 193.6H344.9V0.2C426.1 0.2 477.8 0.2 500 0.1V500.1C450.4000000000001 500 28.3 500 0.8 500z" />
    <glyph glyph-name="globe"
      unicode="&#xE022;"
      horiz-adv-x="500" d=" M250 489C118.2 489 11 381.8 11 250S118.2 11 250 11S489 118.2 489 250S381.8 489 250 489zM421.2 316.5H364.4C358.4 354.5 347.2 387.8 332.5 414C372.8 393.7 404.6 359 421.2 316.5zM433.8 250C433.8 236.6 432.3 223.6 429.6 211H367.7000000000001C368.8000000000001 223.7 369.5000000000001 236.6 369.5000000000001 250S368.8000000000001 276.3 367.7000000000001 289H429.6C432.3 276.4 433.8 263.4 433.8 250zM66.2 250C66.2 263.4 67.7 276.4 70.4 289H132.3C131.2 276.3 130.5 263.4 130.5 250S131.2 223.7 132.3 211H70.4C67.7 223.6 66.2 236.6 66.2 250zM158.1 250C158.1 263.3 158.8 276.3 160 289H236.2V211H160C158.7 223.7 158.1 236.7 158.1 250zM263.8 433.2C271.7 432.6 279.5 431.7 287 430.2C309.6 408.1 327.6 366.8 336.2 316.6H263.8L263.8 433.2L263.8 433.2zM236.2 433.2V316.6H163.8C172.5 366.8 190.4 408.1 213 430.2000000000001C220.6 431.7 228.3 432.6 236.2 433.2zM236.2 183.5V66.9C228.3 67.5 220.5 68.4 213 69.9C190.4 92 172.5 133.3 163.8 183.4H236.2V183.5zM263.8 66.9V183.5H336.2000000000001C327.5 133.3 309.6 92 287 70C279.5 68.4 271.7 67.5 263.8 66.9zM263.8 211V289H340C341.2 276.4 341.9 263.3 341.9 250C341.9 236.7 341.2 223.7 340 211H263.8zM167.5 414.1C152.8 387.8 141.6 354.5 135.6 316.6H78.8C95.4 359 127.2 393.7 167.5 414.1zM78.8 183.5H135.6C141.6 145.6 152.8 112.2 167.5 86C127.2 106.3 95.4 141 78.8 183.5zM332.5 85.9C347.2 112.2 358.4 145.5 364.4 183.4H421.2C404.6 141 372.8 106.3 332.5 85.9z" />
    <glyph glyph-name="google-plus-circle"
      unicode="&#xE023;"
      horiz-adv-x="500" d=" M250 500C388.1 500 500 388.1 500 250S388.1 0 250 0S0 111.9 0 250S111.9 500 250 500zM192.8 212.9000000000001C220.4 212.9000000000001 239.1 196.7000000000001 240.4 175.1000000000001C241.9 152.3000000000001 222.3 135.4000000000001 192.9 133.2000000000001C163.0999999999999 131.0000000000001 138.5 144.4000000000001 137.1 167.3000000000001C136.4 178.2000000000001 141.3 189.0000000000001 150.7 197.6000000000001C160.3 206.3000000000001 173.5 211.7000000000002 187.8 212.7000000000002C189.5 212.9000000000001 191.1 212.9000000000001 192.8 212.9000000000001zM220.9 337.4000000000001C228.2 311.6000000000001 217.1 284.6000000000001 199.6 279.7000000000001C197.6 279.2000000000001 195.5 278.9000000000001 193.4 278.9000000000001C177.2 278.9000000000001 161.2 295.3000000000001 155.3 317.8000000000001C151.9 330.4000000000001 152.2 341.5000000000001 156 352.1000000000001C159.7 362.5000000000001 166.4 369.6000000000001 174.9 372.0000000000001C176.9 372.5000000000001 179 372.8000000000001 181.1 372.8000000000001C200.6 372.8 213.2000000000001 364.7000000000001 220.9 337.4000000000001zM232.2000000000001 117.3C257.4000000000001 129.5 270.1 150.8 270.2000000000001 180.4C270.2000000000001 209.1 250.7000000000001 226.2 236.5000000000001 238.7C227.9000000000001 246.3 220.4000000000001 252.8 220.4000000000001 259.2C220.4000000000001 265.7 225.9000000000001 270.6 232.8000000000001 276.8C244.0000000000001 286.9 254.6000000000001 301.1 254.6000000000001 328.1C254.6000000000001 351.8 251.5000000000001 367.7 232.6000000000001 377.8C234.6000000000001 378.8 241.5000000000001 379.5 245.0000000000001 380C255.3000000000001 381.4 270.3000000000001 383 270.3000000000001 391.4V393.1H195.5000000000001C194.7000000000001 393.1 119.8000000000001 390.3 119.8000000000001 321.7C119.8000000000001 297.4 127.9000000000001 279.9 143.9000000000001 269.6C157.0000000000001 261.1 172.2000000000001 259.9 180.1000000000001 259.9C182.0000000000001 259.9 183.5000000000001 259.9 184.6000000000001 260C184.6000000000001 260 182.1000000000001 243.7 194.2000000000001 227.5H193.6000000000001C172.7000000000001 227.5 104.3000000000001 223.1 104.3000000000001 166.9C104.3000000000001 109.7 167.1000000000001 106.8 179.7000000000001 106.8C180.7000000000001 106.8 181.3000000000001 106.8 181.3000000000001 106.8C181.4000000000001 106.8 182.3000000000001 106.8 183.8000000000001 106.8C191.8 106.8 212.7000000000001 107.8 232.2000000000001 117.3zM395.7000000000001 250.3V281.2H346.9000000000001V330H316V281.2H267.2V250.3H316V201.5H346.9V250.3H395.7000000000001z" />
    <glyph glyph-name="google-plus"
      unicode="&#xE024;"
      horiz-adv-x="500" d=" M0 500C100.2 500 417.4 500 500 500V0C409.1 0 91.8 0 0 0V500zM180.6 204.8C214.3 204.8 237.0000000000001 185 238.7 158.9C240.4 131 216.6 110.4 180.7 107.8C144.4 105.1999999999999 114.3 121.6 112.6 149.4C111.8 162.7 117.6 175.8 129.2 186.2C140.9 196.7 157 203.4 174.5 204.6C176.6 204.8 178.6 204.8 180.6 204.8zM214.9 356.4000000000001C223.9 325.0000000000001 210.3 292.1000000000001 188.8 286.0000000000001C186.3 285.3000000000001 183.8 285.0000000000001 181.2 285.0000000000001C161.4 285.0000000000001 141.9 305.0000000000001 134.6 332.4000000000001C130.6 347.8000000000001 130.8 361.3000000000001 135.5 374.3000000000001C140.1 387.1000000000001 148.3 395.7000000000001 158.6 398.6000000000001C161.1 399.3000000000001 163.7 399.6000000000001 166.2 399.6000000000001C190.2000000000001 399.5999999999999 205.5 389.8 214.9 356.4000000000001zM228.7000000000001 88.4000000000001C259.5000000000001 103.4000000000001 275.0000000000001 129.3000000000001 275.2000000000001 165.3000000000001C275.2000000000001 200.2000000000001 251.5000000000001 221.0000000000001 234.1000000000001 236.3000000000001C223.5000000000001 245.5000000000001 214.4000000000001 253.6000000000001 214.4000000000001 261.3000000000001C214.4000000000001 269.2000000000001 221.0000000000001 275.3000000000001 229.5000000000001 282.8000000000001C243.2000000000001 295.0000000000001 256.1000000000001 312.4000000000001 256.1000000000001 345.2000000000001C256.1000000000001 374.0000000000001 252.4000000000001 393.4000000000001 229.2000000000001 405.7000000000001C231.6000000000001 407.0000000000001 240.2000000000001 407.8000000000001 244.4000000000001 408.4000000000001C256.9000000000001 410.1000000000001 275.2000000000001 412.0000000000001 275.2000000000001 422.3000000000001V424.3000000000001H184.0000000000001C183.0000000000001 424.3000000000001 91.7000000000001 420.9000000000001 91.7000000000001 337.4000000000001C91.7000000000001 307.8000000000001 101.6000000000001 286.5000000000001 121.1000000000001 273.9000000000001C137.0000000000001 263.6000000000001 155.6000000000001 262.1000000000001 165.3000000000001 262.1000000000001C167.6000000000001 262.1000000000001 169.5000000000001 262.1000000000001 170.8000000000001 262.2000000000001C170.8000000000001 262.2000000000001 167.7000000000001 242.3000000000001 182.5000000000001 222.6000000000001H181.8000000000001C156.2000000000001 222.6000000000001 72.8000000000001 217.3000000000001 72.8000000000001 148.8000000000001C72.8000000000001 79.1000000000001 149.4000000000001 75.6000000000001 164.8000000000001 75.6000000000001C166.0000000000001 75.6000000000001 166.7000000000001 75.6000000000001 166.7000000000001 75.6000000000001C166.9000000000001 75.6000000000001 167.9000000000001 75.6000000000001 169.8000000000001 75.6000000000001C179.4 75.5999999999999 205 76.8 228.7000000000001 88.4000000000001zM428.3 250.3V288H368.7V347.4H331V288H271.5V250.3H331V190.9H368.7V250.3000000000001H428.3z" />
    <glyph glyph-name="heart"
      unicode="&#xE025;"
      horiz-adv-x="500" d=" M250.1 328.7C260.6 361.6 276.5 386.5 298 403.5S345.5 429 376.2 429C412.4 429 441.6 417.9 463.6 395.8S496.7 344.4 496.7 308C496.7 276.1 489.0000000000001 250.4 473.7 231S429.0000000000001 192.7 385.5000000000001 174.4L379.9000000000001 171.9C308.6 141.8 265.3000000000001 108.2 250.2000000000001 71.1C234.7000000000001 108.4 191.6000000000001 142.1 120.8000000000001 171.9C118.2000000000001 173 116.1 173.9 114.6 174.4C70.9 192.7 41.4 211.5 26.2 230.7C11 249.9 3.4 275.7 3.4 308C3.4 344.4 14.5 373.7 36.6 395.8S87.8 429 123.8 429C154.6 429 180.7 420.5 202.1 403.5S239.5 361.6 250.1 328.7z" />
    <glyph glyph-name="info-circle"
      unicode="&#xE026;"
      horiz-adv-x="500" d=" M250 500C112 500 0 388 0 250S112 0 250 0S500 112 500 250S388 500 250 500zM275 124.9000000000001H225V274.9000000000001H275V124.9000000000001zM275 325H225V375H275V325z" />
    <glyph glyph-name="info"
      unicode="&#xE027;"
      horiz-adv-x="500" d=" M225 124.9000000000001H275V274.9000000000001H225V124.9000000000001zM250 500C112 500 0 388 0 250S112 0 250 0S500 112 500 250S388 500 250 500zM250 49.9000000000001C139.7 49.9000000000001 49.9 139.7000000000001 49.9 250.0000000000001S139.7 450.1000000000001 250 450.1000000000001S450.1 360.3000000000001 450.1 250.0000000000001S360.3 49.9000000000001 250 49.9000000000001zM225 325H275V375H225V325z" />
    <glyph glyph-name="linkedin-circle"
      unicode="&#xE028;"
      horiz-adv-x="500" d=" M250 500C111.9 500 0 388.1 0 250S111.9 0 250 0S500 111.9 500 250S388.0999999999999 500 250 500zM173.9 112.4000000000001H116.7V296.2000000000001H173.9V112.4000000000001zM145.3 321.3C126.9 321.3 112.2 336.1 112.2 354.4C112.2 372.7 127 387.5 145.3 387.5S178.4 372.7 178.4 354.4C178.4 336.2000000000001 163.6 321.3 145.3 321.3zM387.8 112.4000000000001H330.7V201.8000000000001C330.7 223.1000000000001 330.3 250.5000000000001 301 250.5000000000001C271.3 250.5000000000001 266.7 227.3000000000001 266.7 203.3000000000001V112.4000000000001H209.5999999999999V296.2000000000001H264.3999999999999V271.1000000000002H265.2C272.8 285.5000000000001 291.5 300.8000000000001 319.2 300.8000000000001C377 300.8000000000001 387.7 262.7000000000001 387.7 213.2000000000001V112.4000000000001H387.8z" />
    <glyph glyph-name="linkedin-share"
      unicode="&#xE029;"
      horiz-adv-x="500" d=" M446.1 225.5V80.4H362V215.8C362 249.8 349.9 273 319.4 273C296.1 273 282.3 257.4 276.3 242.3C274.1 236.9000000000001 273.5 229.3 273.5 221.8V80.6H189.4C189.4 80.6 190.5 309.8 189.4 333.6H273.5V297.7000000000001C273.3999999999999 297.5 273.1 297.1 272.8999999999999 296.9H273.5V297.7000000000001C284.7 314.9 304.6 339.5 349.3 339.5C404.7 339.4 446.1 303.3 446.1 225.5zM101.4 455.3C72.6 455.3 53.8 436.5 53.8 411.6C53.8 387.4 72 367.9 100.2 367.9H100.8C130.1 367.9 148.3 387.3 148.3 411.6C147.9 436.5 130.2 455.3 101.4 455.3zM58.8 80.6H143V333.4H58.8V80.6z" />
    <glyph glyph-name="linkedin-square"
      unicode="&#xE02A;"
      horiz-adv-x="500" d=" M10.9000000000001 490L10 10C138 10 410 10 489.1 10L490 490C418 490 82 490 10.9000000000001 490zM152.4000000000001 81.8H81.4000000000001V310.1H152.4000000000001V81.8zM116.9000000000001 341.4C94.1000000000001 341.4 75.7000000000001 359.8 75.7000000000001 382.6S94.1000000000001 423.8 116.9000000000001 423.8S158.1000000000001 405.4 158.1000000000001 382.6S139.5999999999999 341.4 116.9000000000001 341.4zM418.2000000000001 81.8H347.3000000000001V192.8C347.3000000000001 219.3 346.8000000000001 253.3 310.4000000000001 253.3C273.5000000000001 253.3 267.8000000000001 224.5 267.8000000000001 194.6V81.6H196.9000000000001V310.1H264.9000000000001V278.9000000000001H265.9000000000001C275.3000000000001 296.8000000000001 298.6000000000001 315.8000000000001 333.1000000000001 315.8000000000001C405.0000000000001 315.8000000000001 418.2000000000001 268.5000000000001 418.2000000000001 207.0000000000001L418.2000000000001 81.8L418.2000000000001 81.8z" />
    <glyph glyph-name="linkedin"
      unicode="&#xE02B;"
      horiz-adv-x="500" d=" M0.9 500L0 0C133.3 0 416.7 0 499.1 0L500 500C425 500 75 500 0.9 500zM148.3 74.8H74.3V312.7H148.3V74.8zM111.3 345.2000000000001C87.5 345.2000000000001 68.4 364.4000000000001 68.4 388.1C68.4 411.8000000000001 87.6 431.0000000000001 111.3 431.0000000000001C135 431.0000000000001 154.2 411.8000000000001 154.2 388.1C154.2000000000001 364.4000000000001 134.9 345.2000000000001 111.3 345.2000000000001zM425.2000000000001 74.8H351.3000000000001V190.5C351.3000000000001 218.1 350.8000000000001 253.6 312.8000000000001 253.6C274.3000000000001 253.6 268.4000000000001 223.5999999999999 268.4000000000001 192.5V74.8H194.5000000000001V312.8H265.4000000000001V280.3H266.4000000000001C276.2000000000001 299 300.4000000000001 318.8 336.4000000000001 318.8C411.3000000000001 318.8 425.1000000000001 269.5 425.1000000000001 205.4V75H425.2000000000001z" />
    <glyph glyph-name="list"
      unicode="&#xE02C;"
      horiz-adv-x="500" d=" M40 461.2C17.9 461.2 0 443.2 0 421.1S18 381.1 40.1 381.1C62.2 381.1 80.1 399 80.1 421.1C80.2 443.2 62.3 461.1 40.2 461.2C40.1 461.3 40.1 461.3 40 461.2z M40 290.8C17.9 290.8 0 272.8 0 250.7C0 228.6 18 210.7000000000001 40.1 210.7000000000001C62.2 210.7000000000001 80.1 228.7000000000001 80.1 250.8000000000001S62.1 290.9 40 290.8C40 290.8 40 290.8 40 290.8z M40 119.6C17.9 119.6 0 101.6 0 79.5S18 39.5 40.1 39.5C62.2 39.5 80.1 57.4 80.1 79.5C80.2 101.6 62.3 119.5 40.2 119.6C40.1 119.7 40.1 119.7 40 119.6z M134.6 118.9H500V38.7H134.6V118.9z M134.6 461.2H500V380.9H134.6V461.2z M134.6 290.5H500V210.3H134.6V290.5z" />
    <glyph glyph-name="location"
      unicode="&#xE02D;"
      horiz-adv-x="500" d=" M260.5 250C231.5 250 208 273.5 208 302.5S231.5 355 260.5 355S313 331.5 313 302.5S289.5 250 260.5 250M250 460C168.7 460 103 394.3 103 313C103 202.8 250 40 250 40S397 202.8 397 313C397 394.2999999999993 331.3 460 250 460" />
    <glyph glyph-name="message-dialog"
      unicode="&#xE02E;"
      horiz-adv-x="500" d=" M1.2 500C-0.1 499.8 -0.1 498.3 0.1 496.6V147.1H96V0C110.1 8.5 120.6 22.5 132.8 35.1C159.5 62.1 179.8 82.8 207.6 111C218 121.3 234.8 144.2 246.7 147.1C263.7000000000001 151.3 290.1 147.1 309.1 147.1H500V500H1.2zM412.9 276H87.1V312.3C86.9 313.8 86.9 315.5 88.2 315.7000000000001H412.9V276zM412.9 348.4H87.1V384.6C86.9 386.2 86.9 387.9 88.2 388H412.9V348.4z" />
    <glyph glyph-name="minus-circle"
      unicode="&#xE02F;"
      horiz-adv-x="500" d=" M250 458.3C135 458.3 41.7 365 41.7 250S135 41.7 250 41.7S458.3 135 458.3 250S365 458.3 250 458.3zM354.2 229.2H145.8V270.9H354.1V229.2H354.2z" />
    <glyph glyph-name="minus-square"
      unicode="&#xE030;"
      horiz-adv-x="500" d=" M0 500H500V0H0V500zM346.2000000000001 269.2000000000001H153.8V230.7000000000001H346.1V269.2000000000001z" />
    <glyph glyph-name="minus"
      unicode="&#xE031;"
      horiz-adv-x="500" d=" M500 299L500 207L0 207L0 299z" />
    <glyph glyph-name="pamphlet-open"
      unicode="&#xE032;"
      horiz-adv-x="500" d=" M250 407L17.6 500V93L250 0L482.4 93V500L250 407zM206.5 120.9L61.2 179.1V228.2000000000001L206.5 170V120.9zM206.5 271.8L61.2 329.9V379.1L206.5 321V271.8zM441.9 179.1L296.5 121V170L441.9 228.2V179.1zM441.9 329.9L296.5 271.8V320.9L441.9 379V329.9z" />
    <glyph glyph-name="pdf"
      unicode="&#xE033;"
      horiz-adv-x="500" d=" M333.5 476.5L333.5 388.2L423.5 388.2z M182.9 234.8C182.1 235.7 181.1 236.4000000000001 180 236.8C179 237.2 177.9 237.4000000000001 176.8 237.4000000000001H162V215.4H177.5C179.8 215.4 181.9 216.5000000000001 183.3 218.2000000000001C184.9 220.1 185.7 222.9 185.7 226.5000000000001C185.7 228.2000000000001 185.5 229.8000000000001 184.9 231.4000000000001C184.5 232.7 183.8 233.9 182.9 234.8z M267.5 230.9C265.6 233 263.3 234.7 260.7 235.8C257.8 237 254.7 237.6 251.6 237.5H239.9V189.6H251.6C254.8 189.5 257.9 190.2 260.9 191.4C263.5 192.5 265.8 194.3 267.7 196.5C269.6 198.7 271 201.3 271.9 204.1C273.8 210.4 273.8 217.1 271.9 223.4C270.8 226.1 269.3 228.6 267.5 230.9z M295 350.3V495.4H57.2V8.4H442.7V350.3H295zM203 216.3C201.8 213.1 200 210.1 197.7 207.5C192.9 202.1 186 199 178.7 199.1H162V173.1H143V253.7H178C181.7 253.7 185.4 252.9 188.8 251.3C192 249.8 194.9 247.7 197.2 245.1C199.5 242.5 201.4 239.6 202.8 236.4000000000001C204.1 233.3 204.8 229.9000000000001 204.8 226.5000000000001C204.9 223 204.2 219.6 203 216.3L203 216.3zM289.6 196.9C287.8 192.1 285 187.8 281.3 184.2C277.6 180.6 273.2 177.8 268.3 176C262.9000000000001 174 257.2 173 251.5 173.1H220.9V253.8H251.5C257.6 253.9 263.6 252.8 269.3 250.6C274.1 248.7 278.5 245.7 282.1 242C285.5 238.3 288.2000000000001 234 289.9000000000001 229.2C291.7000000000001 224.2 292.5000000000001 218.9 292.5000000000001 213.6C292.5 207.9 291.5 202.3 289.6 196.9L289.6 196.9zM365.2 237.4H328.4V220H358.7V204.9H328.4V173.1H309.4V253.8H365.2L365.2 237.4z" />
    <glyph glyph-name="person-plus"
      unicode="&#xE034;"
      horiz-adv-x="500" d=" M188.1 156.6L125.4 156.6L125.4 219.3L62.7 219.3L62.7 156.6L0 156.6L0 94L62.7 94L62.7 31.3L125.4 31.3L125.4 94L188.1 94z M478 118.7C463.5 141.5 414.3 155.6 365.6 176S305.4000000000001 203.3 305.4000000000001 203.3L305 250C305 250 323.2 264 328.9 308C340.4 304.7 352.2 325 352.9 335.7C353.5 346 351.4 374.7 337.5 371.8C340.3 393.3 342.4 412.7 341.3 423C337.7 460.4 300.7 500 243.9 500S150.3 460.4 146.6 422.9C145.6 412.6 147.7 393.2 150.5 371.7C136.6 374.6 134.4 345.9 134.9 335.6C135.5 324.9 147.7000000000001 304.6 159 307.9C164.7 263.9 182.9 249.9 182.9 249.9L182.5 203.2C182.5 203.2 176.6 199.6 156.7 190.7V187.8H219.4V62.5H156.7000000000001V0H487.3000000000001C487.2 0 491.1 98.2 478 118.7z" />
    <glyph glyph-name="play-circle"
      unicode="&#xE035;"
      horiz-adv-x="500" d=" M250 458.3C135 458.3 41.7 365 41.7 250S135 41.7 250 41.7S458.3 135 458.3 250S365 458.3 250 458.3zM208.3 156.2V343.8L333.3 250L208.3 156.2z" />
    <glyph glyph-name="play-square"
      unicode="&#xE036;"
      horiz-adv-x="500" d=" M0 497.3H500V2.8H0V497.3zM198.3 146.5999999999999L342.4 253.5999999999999L198.3 360.5999999999999V146.5999999999999z" />
    <glyph glyph-name="play"
      unicode="&#xE037;"
      horiz-adv-x="500" d=" M48.7 451.3V46.4999999999999H453.5000000000001V451.3H48.7zM0 500H500V0H0V500zM197.7000000000001 144.9000000000001L341.6 253.1000000000001L197.7 361.3000000000001V144.9000000000001z" />
    <glyph glyph-name="plus-circle"
      unicode="&#xE038;"
      horiz-adv-x="500" d=" M250 458.3C135 458.3 41.7 365 41.7 250S135 41.7 250 41.7S458.3 135 458.3 250S365 458.3 250 458.3zM354.2 229.2H270.9V145.9H229.2V229.2H145.9V270.9H229.2V354.2H270.9V270.9H354.2V229.2z" />
    <glyph glyph-name="plus-square"
      unicode="&#xE039;"
      horiz-adv-x="500" d=" M269.2000000000001 269.2000000000001V346.1H230.7000000000001V269.2000000000001H153.8000000000001V230.7000000000001H230.7000000000001V153.8000000000001H269.2000000000001V230.7000000000001H346.1V269.2000000000001H269.2000000000001zM0 500H500V0H0V500z" />
    <glyph glyph-name="plus"
      unicode="&#xE03A;"
      horiz-adv-x="500" d=" M291.7000000000001 292.2000000000001H500.1V209.9H291.7000000000001V4.3000000000001H208.4V209.9000000000001H0V292.2000000000001H208.4V497.8000000000001H291.7V292.2000000000001L291.7000000000001 292.2000000000001z" />
    <glyph glyph-name="question-circle"
      unicode="&#xE03B;"
      horiz-adv-x="500" d=" M250 500C112 500 0 388 0 250S112 0 250 0S500 112 500 250S388 500 250 500zM275 75H225V125H275V75zM326.8 268.7000000000001L304.4 245.7000000000001C286.4 227.5000000000001 275.1 212.5000000000001 275.1 174.9H225.1V187.4C225.1 214.9 236.4 240.0000000000001 254.4 258.2000000000001L285.4 289.6C294.6 298.6 300.2 311.1 300.2 324.9000000000001C300.2 352.4000000000001 277.8 374.9000000000001 250.2 374.9000000000001S200.2 352.3000000000001 200.2 324.9000000000001H150.2C150.2 380.1 195 424.9000000000001 250.2 424.9000000000001C305.4 424.9000000000001 350.2 380.1 350.2 324.9000000000001C350 303 341 283 326.8 268.7000000000001z" />
    <glyph glyph-name="question"
      unicode="&#xE03C;"
      horiz-adv-x="500" d=" M225 100H275V150H225V100zM250 500C112 500 0 388 0 250S112 0 250 0S500 112 500 250S388 500 250 500zM250 49.9000000000001C139.7 49.9000000000001 49.9 139.7000000000001 49.9 250.0000000000001S139.7 450.1000000000001 250 450.1000000000001S450.1 360.3000000000001 450.1 250.0000000000001S360.3 49.9000000000001 250 49.9000000000001zM250 400C194.8 400 150 355.2 150 300H200C200 327.5 222.6 350 250 350C277.5 350 300 327.6 300 300C300 250 225 256.2 225 174.9H275C275 231.2 350 237.4 350 300C350 355.3 305.2000000000001 400 250 400z" />
    <glyph glyph-name="quote"
      unicode="&#xE03D;"
      horiz-adv-x="500" d=" M113.3 71.9C84.3 71.9 59.8 82.1 39.9 102.5S10 152.1 10 190.2C10 240 22.7 286.1 48.1 328.2C73.5 370.4 106.1 403.7 146 428.1L185.4 407.7C169.1 393.2 152.8 372.3 136.4 345.1S111 288.9 109.2 258.1C136.4 256.3 159 247.2 177.2 230.9C195.3 214.6 204.4 193.7 204.4 168.3C204.4 139.3 195.6 115.9 177.9 98.3C160.3 80.7 138.7 71.9 113.3 71.9zM397.5 71.9C369.4 71.9 345.4 82.1 325.4 102.5S295.5 152.1 295.5 190.2C295.5 240 307.9 286.1 332.9 328.2C357.8 370.4 390.2 403.7 430.1 428.1L469.4999999999999 407.7C423.3 366 398.3 316.1 394.7 258.1C421 256.3 443.3999999999999 247.2 461.9999999999999 230.9C480.6 214.6 489.8999999999999 193.7 489.8999999999999 168.3C489.8999999999999 139.3 480.7999999999999 115.9 462.6999999999999 98.3C444.7 80.7 422.9 71.9 397.5 71.9z" />
    <glyph glyph-name="search"
      unicode="&#xE03E;"
      horiz-adv-x="500" d=" M114.7000000000001 158.8C53.3000000000001 240.4 59.8000000000001 356.7 134.1000000000001 431C215.4 512.3 347.2000000000001 512.3 428.5 431C509.8 349.7 509.8 217.9 428.5 136.6C354.2 62.3 237.9 55.9 156.3 117.2L51.1 12L9.5 53.6L114.7000000000001 158.8zM175.7000000000001 178.2000000000001C234.0000000000001 119.9 328.5000000000001 119.9 386.9000000000001 178.2000000000001C445.2000000000001 236.5000000000001 445.2000000000001 331.1 386.9000000000001 389.4000000000001S234.1 447.7000000000001 175.7000000000001 389.4000000000001C117.4 331.0999999999999 117.4 236.5 175.7000000000001 178.2000000000001z" />
    <glyph glyph-name="social-facebook"
      unicode="&#xE03F;"
      horiz-adv-x="500" d=" M210 470.8C229.1 489 256.3 495.1 281.9 495.9C309.1 496.1 336.2 496 363.3 496C363.4000000000001 467.3 363.4000000000001 438.8 363.3 410.1C345.8 410.1 328.2 410.1 310.7 410.1C299.6 410.8 288.2 402.4 286.2 391.3C286 372.2 286.1 353 286.1 333.9C311.8 333.8 337.5 333.9 363.2 333.8C361.3 306.1 357.8 278.5 353.8 251.2C331.1 251.0000000000001 308.4 251.2 285.7 251.1C285.5 169.4 285.8 87.8 285.5999999999999 6.1C251.7999999999999 6 218.1999999999999 6.2 184.3999999999999 6C183.7999999999999 87.7 184.3999999999999 169.4 183.9999999999999 251.1C167.5999999999999 251.2 151.0999999999999 251 134.6999999999999 251.2C134.7999999999999 278.7 134.6999999999999 306.1 134.6999999999999 333.5C151.0999999999999 333.7 167.5999999999999 333.5 184 333.6C184.5 360.2 183.5 387 184.5 413.6C186.2 434.8 194.2 456.1 210 470.8z" />
    <glyph glyph-name="social-google-plus"
      unicode="&#xE040;"
      horiz-adv-x="500" d=" M232.6 234.5C220.7 244.9 210.5 253.9 210.5 262.6C210.5 271.5 218 278.3 227.4 286.8C242.8 300.6 257.2 320.1 257.2 357C257.2 389.4 253 411.2 227.1 425.1C229.8 426.6 239.4 427.5 244.1 428.1C258.1 430 278.6 432.2 278.6 443.7V446H176.3C175.2 446 72.7 442.2 72.7 348.2C72.7 314.9 83.8 291 105.7 276.8C123.5 265.2 144.4 263.5 155.3 263.5C157.9 263.5 160 263.5 161.5 263.6C161.5 263.6 158 241.2 174.6 219.1H173.8C145 219.1 51.4 213.1 51.4 136.1C51.4 57.6999999999999 137.4 53.8 154.7 53.8C156.1 53.8 156.8 53.8 156.8 53.8C157 53.8 158.2 53.8 160.3 53.8C171.4 53.8 200 55.1999999999999 226.7 68.1C261.2 84.9 278.6 114.1 278.9 154.6C278.8 194 252.1 217.4 232.6 234.5zM173.3 289.4C151.1 289.4 129.2 311.9 121 342.7C116.5 360 116.7 375.2 122 389.8C127.2 404.1 136.3 413.8 148 417.1C150.8 417.9 153.8 418.2 156.6 418.2C183.4 418.2 200.5 407.1 211.1 369.7C221.1 334.4 205.9 297.4 181.9 290.6C179.1 289.7 176.3 289.4 173.3 289.4zM172.8 90.1C132 87.2000000000001 98.3 105.6 96.4 136.8C95.5 151.7 102 166.5 115 178.2C128.1 190.1 146.2 197.5 165.8 198.9C168.2 199.1 170.4 199.1 172.7 199.1C210.5 199.1 236 176.9 238 147.5C239.8 116.2 213.1 93.1 172.8 90.1z M383.7 292.7L383.7 359.5L341.3 359.5L341.3 292.7L274.5 292.7L274.5 250.3L341.3 250.3L341.3 183.5L383.7 183.5L383.7 250.3L450.6 250.3L450.6 292.7z" />
    <glyph glyph-name="social-instagram"
      unicode="&#xE041;"
      horiz-adv-x="500" d=" M251 455.9C279.9 456 308.8 456.4 337.6 454.9C360.7000000000001 453.7 383 449.4 402.9000000000001 437.1C430.1 420.3 446.0000000000001 395.5 452.4 364.5C456.3 345.7 456.7 326.6 456.8 307.5C457.1 266.7 457.1 226 456.6 185.2C456.4 163.4 455.6 141.6 448.3 120.7C434.4000000000001 80.9 406.1 57.6 365.4 48.8C346.6 44.6999999999999 327.5 44.4999999999999 308.4 44.4C267.6 44.1 226.9 44.1 186.1 44.6C164.3 44.8 142.5 45.6 121.6 52.9C82 66.8 58.7 94.9 49.8 135.4C45.6 154.3 45.4 173.6 45.3 192.8C45 233.6 45 274.3 45.5 315.1C45.7 336.9 46.5 358.7 53.8 379.6C67.7 419.4 96 442.7 136.7 451.5C155.3 455.5 174.3 455.6 193.3 455.9C212.4 456.2 231.7 455.9 251 455.9zM82.1 253.5C82.1 248.7 82.1 243.9 82.1 239.1C82.4 209.8 81.6 180.5 84.8 151.2000000000001C88.6 116.6 109.2 93.3000000000001 143.2 85.5000000000001C161.5 81.3000000000001 180.3 81.7000000000001 198.8 81.4C233.5 80.9 268.3 81.0000000000001 303 81.4C318.6 81.5000000000001 334.2 82.0000000000001 349.8 83.8C384.2 87.8 407.6 108.3 415.3 141.9C419.6 160.5000000000001 419.2 179.5000000000001 419.4000000000001 198.4C419.9000000000001 232.8 419.8 267.3000000000001 419.4000000000001 301.7000000000001C419.2000000000001 319.4000000000001 419.4000000000001 337.2000000000001 416.0000000000001 354.7000000000001C410.1000000000001 385.2000000000001 392.9000000000001 405.5000000000001 362.3000000000001 413.6C346.1000000000001 417.9000000000001 329.6000000000001 418.0000000000001 313.1000000000001 418.3000000000001C283.9000000000001 418.8000000000001 254.7000000000001 418.9000000000001 225.6000000000001 418.8000000000001C201.0000000000001 418.7000000000001 176.3000000000001 419.2000000000001 151.7000000000001 416.1C131.7000000000001 413.6 114.1000000000001 406.1 101.0000000000001 389.9000000000001C89.3000000000001 375.5000000000001 85.1000000000001 358.5000000000001 83.8000000000001 340.5000000000001C81.8 311.6 82.3 282.5 82.1 253.5z M251.1 144.2C191.8 144.2 145.2 191.2 145.2 251.1C145.2 309 193.6 356.6 252.3 356C309.9 355.4 357.6 307.6 357 248.6C356.3 191.2 309.1 144.2 251.1 144.2zM319.6 250.1C319.5 287.8 288.4000000000001 318.8 250.9000000000001 318.6C213.2000000000001 318.4 182.3000000000001 287.5 182.4 249.9C182.5 212.3 213.6 181.3 251.1 181.4C288.8 181.5 319.7 212.5 319.6 250.1z M361.1 384.7C375.1 384.7 385.7000000000001 373.8 385.6 359.7C385.5 346.1 374.4000000000001 335 360.9000000000001 335C347.2000000000001 335 335.9000000000001 346.4 335.9000000000001 360C336.1 373.8 347.2 384.7 361.1 384.7z" />
    <glyph glyph-name="social-linkedin"
      unicode="&#xE042;"
      horiz-adv-x="500" d=" M446.1 225.5V80.4H362V215.8C362 249.8 349.9 273 319.4 273C296.1 273 282.3 257.4 276.3 242.3C274.1 236.9000000000001 273.5 229.3 273.5 221.8V80.6H189.4C189.4 80.6 190.5 309.8 189.4 333.6H273.5V297.7000000000001C273.3999999999999 297.5 273.1 297.1 272.8999999999999 296.9H273.5V297.7000000000001C284.7 314.9 304.6 339.5 349.3 339.5C404.7 339.4 446.1 303.3 446.1 225.5zM101.4 455.3C72.6 455.3 53.8 436.5 53.8 411.6C53.8 387.4 72 367.9 100.2 367.9H100.8C130.1 367.9 148.3 387.3 148.3 411.6C147.9 436.5 130.2 455.3 101.4 455.3zM58.8 80.6H143V333.4H58.8V80.6z" />
    <glyph glyph-name="social-twitter"
      unicode="&#xE043;"
      horiz-adv-x="500" d=" M495.7 403.6C482 383.2 465.2 365.8 445.2 351.4C445.4 347.5 445.5 343.2 445.5 338.3C445.5 311.3 441.6 284.3 433.7 257.2S413.8 204.2 397.6 179.5C381.4 154.7 362.1 132.8 339.8 113.7C317.4 94.6 290.5 79.4 259.1 68C227.7 56.6 194 51 158.1 51C102 51 50.4 66.1 3.2 96.4C11.6 95.5 19.6 95 27.3 95C74.1 95 116 109.4 152.8 138.3C131 138.7 111.4 145.4 94.1 158.5C76.8 171.5 64.9 188.2 58.4 208.5C64.8 207.3 71.2 206.7 77.4 206.7C86.4 206.7 95.3 207.9 104 210.2C80.7 214.9 61.4 226.5 46 245S23 284.9 23 309.2V310.5C37.3 302.6 52.6 298.4 68.8 297.9C55 307.1 44.1 319.1 36 333.9C28 348.6 24 364.6 24 381.8C24 400 28.6 416.9 37.7 432.6C63 401.5 93.7 376.7000000000001 129.8 358C165.9 339.4 204.6 329.1 245.9 327C244.1 334.3 243.3 342 243.3 350C243.3 377.9 253.2 401.7 272.9000000000001 421.4C292.5 441.1 316.3 451 344.2 451C373.4 451 398 440.4 418 419.1C440.8 423.6 462.2 431.8 482.1 443.6C474.4 419.4 459.6 400.8 437.7000000000001 387.7C457.8 390.1 477.2 395.4 495.7 403.6L495.7 403.6z" />
    <glyph glyph-name="social-youtube"
      unicode="&#xE044;"
      horiz-adv-x="500" d=" M495.7 231.3V268.7000000000001C495.7 308.4000000000001 490.9 348.3 490.9 348.3S486.1 382.3 471.3 397.1C452.6 416.7000000000001 431.6 416.7000000000001 422.1 417.8C353.3 423 250 423 250 423H249.9C249.9 423 146.6 423 77.8 418C68.3 417 47.1 416.7 28.6 397.3C13.8 382.4 9 348.5 9 348.5S4.2 308.7 4.2 268.9V231.6C4.2 191.9 9 152 9 152S13.8 118 28.6 103.2C47.4 83.5 72 84.2 82.9 82.1C122.3 78.3 250.2 77.1 250.2 77.1S353.6 77.2 422.4 82.3C431.9 83.3 453.1 83.6 471.6 102.9999999999999C486.4 118 491.2 151.8 491.2 151.8S496 191.6 496 231.4H495.7L495.7 231.3L495.7 231.3zM199.2 186.1V324.4L332 255L199.2 186.1z" />
    <glyph glyph-name="spinner-circle"
      unicode="&#xE045;"
      horiz-adv-x="500" d=" M495 244.2C494.4 277.6 487.1 310.8 473.8 341.2C460.5 371.6 441.1 399.2 417.4000000000001 422C393.7000000000001 444.8 365.5000000000001 462.8 335.1 474.7C304.7000000000001 486.6 271.9000000000001 492.3 239.6 491.6C207.2 491 175 484 145.6 471C116.1 458.1 89.4 439.3 67.4 416.3C45.3 393.3 27.9 366.1 16.4 336.6C4.9 307.1 -0.6 275.5 0.1 244.2C0.7 212.9 7.6 181.8 20.1 153.3C32.6 124.8 50.8 99 73 77.6C95.3 56.3 121.6 39.4 150.1 28.3C178.6 17.2 209.2 11.9 239.5 12.6C269.8 13.2 299.9 19.9 327.4 32C354.9 44.1 379.8 61.7 400.4 83.2C421 104.7 437.2 130.2 447.9 157.8C454.4 174.5 458.8 191.9 461.1 209.6C461.7 209.6 462.3 209.5 462.9999999999999 209.5C480.6 209.5 494.8999999999999 223.8 494.8999999999999 241.3999999999999C494.8999999999999 242.2999999999999 494.8999999999999 243.2 494.7999999999999 244.0999999999999L495 244.2L495 244.2zM444.3 159.4C432.6 132.9 415.6 108.8 394.8 89C374 69.1 349.4000000000001 53.5 322.8 43.2C296.2 32.9 267.8 28 239.5 28.7C211.3 29.3 183.3 35.6 157.8 46.9C132.2 58.2 109.1 74.6 89.9 94.7C70.8 114.8 55.7 138.5 45.8 164.1C36 189.6 31.3 217 32 244.2C32.6 271.4 38.6 298.3 49.6 322.9C60.5 347.5 76.3 369.8 95.6 388.2C114.9 406.6 137.8 421.1 162.4 430.5C187 440 213.4 444.5 239.5 443.8C265.7 443.1 291.5 437.4 315.1 426.8C338.7 416.3 360.1 401.1 377.8 382.5C395.5 363.9 409.3 341.9 418.4 318.3C427.5 294.7 431.8 269.4 431.1 244.2H431.2C431.1 243.3 431.1 242.4 431.1 241.5C431.1 225 443.6 211.5 459.6 209.8C456.5 192.4 451.4 175.4 444.3 159.4z" />
    <glyph glyph-name="spinner"
      unicode="&#xE046;"
      horiz-adv-x="500" d=" M495 244.2C494.4 277.6 487.1 310.8 473.8 341.2C460.5 371.6 441.1 399.2 417.4000000000001 422C393.7000000000001 444.8 365.5000000000001 462.8 335.1 474.7C304.7000000000001 486.6 271.9000000000001 492.3 239.6 491.6C207.2 491 175 484 145.6 471C116.1 458.1 89.4 439.3 67.4 416.3C45.3 393.3 27.9 366.1 16.4 336.6C4.9 307.1 -0.6 275.5 0.1 244.2C0.7 212.9 7.6 181.8 20.1 153.3C32.6 124.8 50.8 99 73 77.6C95.3 56.3 121.6 39.4 150.1 28.3C178.6 17.2 209.2 11.9 239.5 12.6C269.8 13.2 299.9 19.9 327.4 32C354.9 44.1 379.8 61.7 400.4 83.2C421 104.7 437.2 130.2 447.9 157.8C454.4 174.5 458.8 191.9 461.1 209.6C461.7 209.6 462.3 209.5 462.9999999999999 209.5C480.6 209.5 494.8999999999999 223.8 494.8999999999999 241.3999999999999C494.8999999999999 242.2999999999999 494.8999999999999 243.2 494.7999999999999 244.0999999999999L495 244.2L495 244.2zM444.3 159.4C432.6 132.9 415.6 108.8 394.8 89C374 69.1 349.4000000000001 53.5 322.8 43.2C296.2 32.9 267.8 28 239.5 28.7C211.3 29.3 183.3 35.6 157.8 46.9C132.2 58.2 109.1 74.6 89.9 94.7C70.8 114.8 55.7 138.5 45.8 164.1C36 189.6 31.3 217 32 244.2C32.6 271.4 38.6 298.3 49.6 322.9C60.5 347.5 76.3 369.8 95.6 388.2C114.9 406.6 137.8 421.1 162.4 430.5C187 440 213.4 444.5 239.5 443.8C265.7 443.1 291.5 437.4 315.1 426.8C338.7 416.3 360.1 401.1 377.8 382.5C395.5 363.9 409.3 341.9 418.4 318.3C427.5 294.7 431.8 269.4 431.1 244.2H431.2C431.1 243.3 431.1 242.4 431.1 241.5C431.1 225 443.6 211.5 459.6 209.8C456.5 192.4 451.4 175.4 444.3 159.4z" />
    <glyph glyph-name="squares"
      unicode="&#xE047;"
      horiz-adv-x="500" d=" M182.4 137.4H317.6V2H182.4V137.4z M2 317.7H137.2V182.3H2V317.7z M2 137.4H137.2V2H2V137.4z M182.4 317.7H317.6V182.3H182.4V317.7z M2 498H137.2V362.8H2V498z M362.8 317.7H498V182.3H362.8V317.7z M362.8 498H498V362.8H362.8V498z M362.8 137.4H498V2H362.8V137.4z M182.4 498H317.6V362.8H182.4V498z" />
    <glyph glyph-name="stack"
      unicode="&#xE048;"
      horiz-adv-x="500" d=" M496.3 373.1L250 496.3L3.7 373.1L250 249.9z M250 204.8L98 280.7L3.7 249.9L250 126.8L496.3 249.9L409.8 282.7z M250 81.6L98 157.6L3.7 126.8L250 3.7L496.3 126.8L409.8 159.5z" />
    <glyph glyph-name="support-policy-icon"
      unicode="&#xE049;"
      horiz-adv-x="500" d=" M49 497L49 2L450 2L450 355.244216L308.466857 497L49 497zM110.7264673 435.1568123L282.837368 435.1568123L295.715551 422.2410026L295.715551 342.264781L375.4587880000001 342.264781L388.400411 329.476221L388.400411 63.970437L110.7264673 63.970437L110.7264673 435.1568123zM141.5579813 311.406812L264.820598 311.406812L264.820598 342.264781L141.5579813 342.264781L141.5579813 311.406812zM141.5579813 218.642031L357.378579 218.642031L357.378579 249.436375L141.5579813 249.436375L141.5579813 218.642031zM141.5579813 125.686375L357.378579 125.686375L357.378579 156.671594L141.5579813 156.671594L141.5579813 125.686375z" />
    <glyph glyph-name="twitter-circle"
      unicode="&#xE04A;"
      horiz-adv-x="500" d=" M250 500C111.9 500 0 388.1 0 250S111.9 0 250 0S500 111.9 500 250S388.0999999999999 500 250 500zM358.5 305.5999999999999C358.6 303.2 358.7 300.7999999999999 358.7 298.3999999999999C358.7 224.3999999999999 302.4 139.0999999999999 199.4 139.0999999999999C167.8 139.0999999999999 138.4 148.3999999999999 113.6 164.2999999999999C118 163.7999999999999 122.4 163.4999999999999 127 163.4999999999999C153.2 163.4999999999999 177.4 172.4999999999999 196.5 187.4999999999999C172 187.9999999999999 151.3 204.0999999999999 144.2 226.3999999999999C147.6 225.6999999999999 151.1 225.3999999999999 154.7 225.3999999999999C159.8 225.3999999999999 164.8 226.0999999999999 169.5 227.3999999999999C143.9 232.4999999999999 124.6 255.1999999999999 124.6 282.2999999999999C124.6 282.4999999999999 124.6 282.7999999999999 124.6 282.9999999999999C132.2 278.7999999999999 140.8 276.2999999999999 150 275.9999999999999C135 285.9999999999999 125.1 303.1999999999998 125.1 322.5999999999999C125.1 332.8999999999999 127.9 342.4999999999999 132.7 350.7999999999999C160.3 316.8999999999999 201.6 294.5999999999999 248.1 292.2999999999999C247.1 296.3999999999999 246.6 300.6999999999998 246.6 305.0999999999999C246.6 335.9999999999999 271.7 361.0999999999999 302.6 361.0999999999999C318.7000000000001 361.0999999999999 333.3 354.2999999999999 343.5 343.3999999999999C356.3 345.8999999999999 368.2 350.5999999999999 379.1 356.9999999999999C374.9000000000001 343.8999999999999 366 332.8999999999999 354.5 325.9999999999999C365.8 327.3999999999999 376.6 330.3999999999999 386.7 334.7999999999999C379 323.4000000000001 369.5 313.5 358.5 305.5999999999999z" />
    <glyph glyph-name="twitter-share"
      unicode="&#xE04B;"
      horiz-adv-x="500" d=" M495.7 403.6C482 383.2 465.2 365.8 445.2 351.4C445.4 347.5 445.5 343.2 445.5 338.3C445.5 311.3 441.6 284.3 433.7 257.2S413.8 204.2 397.6 179.5C381.4 154.7 362.1 132.8 339.8 113.7C317.4 94.6 290.5 79.4 259.1 68C227.7 56.6 194 51 158.1 51C102 51 50.4 66.1 3.2 96.4C11.6 95.5 19.6 95 27.3 95C74.1 95 116 109.4 152.8 138.3C131 138.7 111.4 145.4 94.1 158.5C76.8 171.5 64.9 188.2 58.4 208.5C64.8 207.3 71.2 206.7 77.4 206.7C86.4 206.7 95.3 207.9 104 210.2C80.7 214.9 61.4 226.5 46 245S23 284.9 23 309.2V310.5C37.3 302.6 52.6 298.4 68.8 297.9C55 307.1 44.1 319.1 36 333.9C28 348.6 24 364.6 24 381.8C24 400 28.6 416.9 37.7 432.6C63 401.5 93.7 376.7000000000001 129.8 358C165.9 339.4 204.6 329.1 245.9 327C244.1 334.3 243.3 342 243.3 350C243.3 377.9 253.2 401.7 272.9000000000001 421.4C292.5 441.1 316.3 451 344.2 451C373.4 451 398 440.4 418 419.1C440.8 423.6 462.2 431.8 482.1 443.6C474.4 419.4 459.6 400.8 437.7000000000001 387.7C457.8 390.1 477.2 395.4 495.7 403.6L495.7 403.6z" />
    <glyph glyph-name="twitter-square"
      unicode="&#xE04C;"
      horiz-adv-x="500" d=" M11.0999999999999 488.9L12 10C83 10 434.1 10 490 10L489.1 488.9C442.1 488.9 59 488.9 11.0999999999999 488.9zM376.9 314.6C377 311.8 377.1 309 377.1 306.1C377.1 219.7000000000001 311.4 120.2000000000001 191.2 120.2000000000001C154.3 120.2000000000001 119.9 131.1 91.1 149.5000000000001C96.2 148.9 101.4 148.5000000000001 106.7 148.5000000000001C137.3 148.5000000000001 165.5 159.0000000000001 187.9 176.5000000000001C159.3 177.1000000000001 135.2 195.9 126.8 221.9C130.8 221.1 134.9 220.7000000000001 139.1 220.7000000000001C145.1 220.7000000000001 150.8 221.5000000000001 156.3 223.0000000000001C126.4 229.0000000000001 103.9 255.4000000000001 103.9 287.0000000000001C103.9 287.3000000000001 103.9 287.6 103.9 287.9000000000001C112.7 283.0000000000001 122.7 280.1 133.5 279.7000000000001C116 291.4000000000001 104.5 311.4000000000001 104.5 334.0000000000001C104.5 345.9000000000001 107.8 357.2000000000001 113.3 366.9000000000001C145.5 327.4000000000001 193.7 301.4000000000001 247.9 298.6000000000001C246.7 303.4000000000001 246.2 308.4000000000001 246.2 313.5000000000001C246.2 349.6000000000001 275.4 378.8000000000001 311.5 378.8000000000001C330.3 378.8000000000001 347.3 370.9000000000001 359.2 358.1000000000001C374.1 361.0000000000001 388 366.5000000000001 400.6 374.0000000000001C395.7 358.7000000000001 385.4 345.9000000000001 371.8 337.8000000000001C385 339.3000000000001 397.6 342.9000000000001 409.3 348.1000000000001C400.8 335.3 389.7000000000001 323.9 376.9 314.6z" />
    <glyph glyph-name="twitter"
      unicode="&#xE04D;"
      horiz-adv-x="500" d=" M0 500L0.9 0C75 0 441.7 0 500 0L499.1 500C450 500 50 500 0 500zM381.9000000000001 318.0999999999999C382.0000000000001 315.2 382.1000000000001 312.2999999999999 382.1000000000001 309.2999999999999C382.1000000000001 219.0999999999999 313.5000000000001 115.1999999999999 188.0000000000001 115.1999999999999C149.4000000000001 115.1999999999999 113.6000000000001 126.5 83.5000000000001 145.8C88.8000000000001 145.1999999999999 94.2000000000001 144.8 99.8000000000001 144.8C131.7000000000001 144.8 161.1000000000001 155.6999999999999 184.5000000000001 174C154.7000000000001 174.6 129.5000000000001 194.3 120.7000000000001 221.3999999999999C124.9000000000001 220.5999999999999 129.1000000000001 220.1999999999999 133.6000000000001 220.1999999999999C139.8000000000001 220.1999999999999 145.8000000000001 221 151.6000000000001 222.5999999999999C120.4000000000001 228.7999999999999 96.9000000000001 256.3999999999999 96.9000000000001 289.4999999999999C96.9000000000001 289.8 96.9000000000001 290.0999999999999 96.9000000000001 290.3999999999999C106.1000000000001 285.3 116.6000000000001 282.3 127.8000000000001 281.8999999999999C109.5000000000001 294.0999999999999 97.5000000000001 314.9999999999999 97.5000000000001 338.5999999999999C97.5000000000001 350.9999999999999 100.9000000000001 362.7999999999999 106.7000000000001 372.8999999999999C140.3000000000001 331.5999999999999 190.6000000000001 304.4999999999999 247.3000000000001 301.5999999999999C246.1000000000001 306.5999999999999 245.5000000000001 311.7999999999999 245.5000000000001 317.2C245.5000000000001 354.8999999999999 276.0000000000001 385.3999999999999 313.7000000000001 385.3999999999999C333.3000000000001 385.3999999999999 351.0000000000001 377.2 363.5000000000001 363.7999999999999C379.1000000000001 366.7999999999999 393.6000000000001 372.4999999999999 406.8000000000001 380.3999999999999C401.7000000000001 364.3999999999999 390.9000000000001 351.0999999999999 376.8000000000001 342.5999999999999C390.6000000000001 344.2 403.7000000000001 347.8999999999999 416.0000000000001 353.2999999999999C406.8 339.7000000000001 395.3 327.7000000000001 381.9000000000001 318.0999999999999z" />
    <glyph glyph-name="user"
      unicode="&#xE04E;"
      horiz-adv-x="500" d=" M250.1 4.0999999999999H499.4C499.4 4.0999999999999 503.6 101.2999999999999 490.0000000000001 121.5999999999999C475.0000000000001 144.0999999999999 424.7000000000001 158.2999999999999 374.6 178.2999999999999C324.8 198.3999999999999 313 205.3999999999999 313 205.3999999999999L312.5 251.5999999999999C312.5 251.5999999999999 331.2 265.5999999999999 337 309.0999999999999C348.7 305.7999999999999 361 325.8999999999999 361.7 336.5999999999999C362.3 346.7999999999999 360 374.9999999999999 345.7 372.2C348.6 393.5999999999999 350.8 412.7999999999999 349.9 422.8999999999999C346 459.9999999999999 308.3 499.1999999999999 250.1 499.1999999999999C191.8 499.1999999999999 153.9 459.9999999999999 150.2 422.8999999999999C149.2 412.7 151.4 393.5999999999999 154.2 372.2C140 375.0999999999999 137.7 346.7999999999999 138.3 336.5999999999999C138.9 325.9999999999999 151.2 305.8999999999999 163 309.0999999999999C168.6999999999999 265.5999999999999 187.5 251.5999999999999 187.5 251.5999999999999L187.0999999999999 205.3999999999999C187.0999999999999 205.3999999999999 175.1999999999999 198.3999999999999 125.3 178.2999999999999C75.4999999999999 158.2999999999999 24.9999999999999 144.1999999999999 10.0999999999999 121.5999999999999C-3.4000000000001 101.3999999999999 0.6999999999999 4.0999999999999 0.6999999999999 4.0999999999999H250.1z" />
    <glyph glyph-name="users"
      unicode="&#xE04F;"
      horiz-adv-x="500" d=" M413.9000000000001 209.3C379.6000000000001 223.1999999999999 371.4000000000001 227.9 371.4000000000001 227.9L371.1000000000001 259.8C371.1000000000001 259.8 383.9000000000001 269.3 388.0000000000001 299.3C396.1000000000001 297 404.4000000000001 310.8 404.8000000000001 318.2C405.3000000000001 325.2 403.8000000000001 344.7 393.9000000000001 342.9C395.9000000000001 357.5 397.4000000000001 370.8 396.6000000000001 377.7C394.0000000000001 403.4 368.1000000000001 430.3 328.0000000000001 430.3C288.0000000000001 430.3 262.0000000000001 403.4 259.4000000000001 377.7C258.7000000000001 370.8 260.2000000000001 357.5 262.2000000000001 342.9C252.4000000000001 344.7 250.7000000000001 325.2 251.3000000000001 318.2C251.7000000000001 310.9 260.2000000000001 297.1 268.2000000000001 299.3C272.1000000000001 269.3 285.0000000000001 259.8 285.0000000000001 259.8L284.7000000000001 227.9C284.7000000000001 227.9 276.7000000000001 223.2 242.3000000000001 209.3C208.0000000000001 195.4 173.4000000000001 185.6999999999999 162.9000000000001 170.1999999999999C153.8000000000001 156.3 156.6000000000001 69.6999999999999 156.6000000000001 69.6999999999999H328H499.6C499.6 69.6999999999999 502.3 156.1999999999999 493.1 170.1999999999999C482.8 185.7000000000001 448.2000000000001 195.4000000000001 413.9000000000001 209.3M136.1 200.7000000000001C131.5 193.8000000000001 111.1 180.3000000000001 114.5 69.8000000000001H0.4C0.4 69.8000000000001 -2.2 147.6000000000001 6.1 160.1000000000001C15.4 174.1000000000001 15.3 182.7000000000001 46.1 195.2000000000001C76.9 207.6000000000001 84.2 212.0000000000001 84.2 212.0000000000001L84.5 240.5000000000001C84.5 240.5000000000001 73 249.1000000000001 69.3 276.1000000000002C62.2 274.0000000000001 54.6 286.5000000000001 54.2 293.0000000000001C53.8 299.2000000000001 55.1 316.8000000000002 64 315.1000000000002C62.2 328.3000000000001 60.8 340.2000000000001 61.5 346.5000000000001C63.7 369.5000000000001 87 393.7000000000001 123 393.7000000000001C159 393.7000000000001 182.4 369.5000000000001 184.7 346.5000000000001C185.2 340.2000000000001 184 328.3000000000002 182.2 315.1000000000002C190.9 316.9000000000001 192.3 299.3000000000001 192 293.0000000000001C191.6 286.5000000000001 184 274.0000000000001 176.7 276.1000000000002C173.2 249.1000000000001 161.6 240.5000000000001 161.6 240.5000000000001L187.3 221.1000000000001C173.1 213.4000000000001 143.9 212.5 136.1 200.7000000000001" />
    <glyph glyph-name="youtube-circle"
      unicode="&#xE050;"
      horiz-adv-x="500" d=" M250 500C388.1 500 500 388.1 500 250S388.1 0 250 0S0 111.9 0 250S111.9 500 250 500zM222.4 215.3V290.5L294.6 252.8L222.4 215.3zM383.7000000000001 239.9000000000001H383.8000000000001V260.2000000000001C383.8000000000001 281.9000000000001 381.1000000000001 303.5000000000001 381.1000000000001 303.5000000000001S378.5000000000001 321.9000000000001 370.5000000000001 330.0000000000001C360.3000000000001 340.6000000000002 348.9000000000001 340.7000000000001 343.7000000000001 341.3000000000002C306.2000000000001 344.0000000000001 250.1000000000001 344.0000000000001 250.1000000000001 344.0000000000001H250C250 344.0000000000001 193.8 344.0000000000001 156.4 341.3000000000002C151.2 340.7000000000002 139.8 340.6000000000002 129.6 330.0000000000001C121.6 321.9000000000001 119 303.5000000000001 119 303.5000000000001S116.3 281.8000000000002 116.3 260.2000000000001V239.9000000000001C116.3 218.2000000000001 119 196.6000000000001 119 196.6000000000001S121.6 178.2000000000001 129.6 170.1000000000001C139.8 159.5000000000001 153.1 159.8000000000001 159.1 158.7000000000001C180.5 156.6000000000001 250 156.0000000000001 250 156.0000000000001S306.2 156.1000000000001 343.6 158.8000000000001C348.8 159.4000000000002 360.2000000000001 159.4000000000002 370.4000000000001 170.1000000000001C378.4000000000001 178.2000000000002 381.0000000000001 196.6000000000001 381.0000000000001 196.6000000000001S383.7000000000001 218.3 383.7000000000001 239.9000000000001z" />
    <glyph glyph-name="youtube-square"
      unicode="&#xE051;"
      horiz-adv-x="500" d=" M12 488.9C99.8 488.9 419 488.9 490 488.9V10C419 10 139.7 10 12 10V488.9zM219.2000000000001 209V296.7L303.4000000000001 252.7L219.2000000000001 209zM407.4 237.6L407.4 237.6L407.3 261.4000000000001C407.3 286.6 404.2 311.9000000000001 404.2 311.9000000000001S401.0999999999999 333.4000000000001 391.8 342.9000000000001C380 355.3000000000001 366.6 355.3000000000001 360.5 356.1C316.8 359.3 251.4 359.3 251.4 359.3H251.3C251.3 359.3 185.8 359.3 142.2 356.1C136.1 355.4000000000001 122.8 355.3 110.9 342.9000000000001C101.6 333.5 98.5 311.9000000000001 98.5 311.9000000000001S95.4 286.6 95.4 261.4000000000001V237.7000000000001C95.4 212.5000000000001 98.5 187.2000000000001 98.5 187.2000000000001S101.6 165.7000000000001 110.9 156.2000000000001C122.8 143.7000000000001 138.4 144.2000000000001 145.3 142.8000000000001C170.3 140.4000000000001 251.4 139.6000000000001 251.4 139.6000000000001S317 139.7000000000001 360.6 142.9000000000001C366.7 143.6000000000001 380 143.7000000000001 391.9 156.1000000000001C401.2 165.6000000000001 404.3 187.1000000000001 404.3 187.1000000000001S407.4 212.4 407.4 237.6z" />
    <glyph glyph-name="youtube"
      unicode="&#xE052;"
      horiz-adv-x="500" d=" M0 500C91.8 500 425.8 500 500 500V0C425.8 0 133.6 0 0 0V500zM216.8 207.7000000000001V299.3000000000001L304.9 253.3000000000001L216.8 207.7000000000001zM413.5999999999999 237.7000000000001H413.4999999999999V262.5000000000001C413.4999999999999 288.8000000000001 410.2999999999999 315.2000000000001 410.2999999999999 315.2000000000001S407.0999999999999 337.7000000000001 397.2999999999999 347.5000000000001C384.8999999999999 360.5000000000001 370.8999999999999 360.5000000000001 364.5999999999999 361.3000000000001C318.8999999999999 364.6000000000001 250.3999999999999 364.6000000000001 250.3999999999999 364.6000000000001H250.3C250.3 364.6000000000001 181.7999999999999 364.6000000000001 136.0999999999999 361.3000000000001C129.7999999999999 360.6000000000001 115.7999999999999 360.5000000000001 103.3999999999999 347.5000000000001C93.5999999999999 337.7000000000001 90.3999999999999 315.2000000000001 90.3999999999999 315.2000000000001S87.1999999999999 288.8000000000001 87.1999999999999 262.5000000000001V237.8000000000001C87.1999999999999 211.5000000000001 90.3999999999999 185.1000000000001 90.3999999999999 185.1000000000001S93.5999999999999 162.6000000000001 103.3999999999999 152.8000000000001C115.8999999999999 139.7000000000001 132.1999999999999 140.2000000000001 139.3999999999999 138.8000000000001C165.5999999999999 136.3000000000001 250.3 135.5000000000001 250.3 135.5000000000001S318.8999999999999 135.6000000000001 364.5999999999999 138.9C370.8999999999999 139.6 384.8999999999999 139.7000000000001 397.2999999999999 152.7000000000001C407.0999999999999 162.6 410.2999999999999 185.0000000000001 410.2999999999999 185.0000000000001S413.5999999999999 211.3 413.5999999999999 237.7000000000001z" />
  </font>
</defs>
</svg>
