<?xml version="1.0" encoding="UTF-8"?>
<svg width="500px" height="501px" viewBox="0 0 500 501" version="1.1" xmlns="http://www.w3.org/2000/svg" xmlns:xlink="http://www.w3.org/1999/xlink">
    <!-- Generator: Sketch 52.3 (67297) - http://www.bohemiancoding.com/sketch -->
    <title>Untitled 2</title>
    <desc>Created with Sketch.</desc>
    <g id="Page-1" stroke="none" stroke-width="1" fill="none" fill-rule="evenodd">
        <g id="facebook" fill="#00BCBC">
            <path d="M0.8,1 L0,501 C44.4,501 133.5,501 267.1,501 L267.1,307.6 L202,307.6 L202,232.2 L267.1,232.2 L267.1,176.6 C267.1,112.1 306.5,76.9 364,76.9 C391.5,76.9 415.2,78.9 422.1,79.9 L422.1,147.3 L382.2,147.3 C351,147.3 344.9,162.2 344.9,184 L344.9,232 L419.5,232 L409.8,307.4 L344.9,307.4 L344.9,500.8 C426.1,500.8 477.8,500.8 500,500.9 L500,0.9 C450.4,1 28.3,1 0.8,1 Z"></path>
        </g>
    </g>
</svg>