<?xml version="1.0" encoding="UTF-8"?>
<svg width="500px" height="500px" viewBox="0 0 500 500" version="1.1" xmlns="http://www.w3.org/2000/svg" xmlns:xlink="http://www.w3.org/1999/xlink">
    <!-- Generator: Sketch 52.3 (67297) - http://www.bohemiancoding.com/sketch -->
    <title>Untitled</title>
    <desc>Created with Sketch.</desc>
    <g id="Page-1" stroke="none" stroke-width="1" fill="none" fill-rule="evenodd">
        <g id="twitter" fill="#00BCBC" fill-rule="nonzero">
            <path d="M0,0 L0.9,500 C75,500 441.7,500 500,500 L499.1,0 C450,0 50,0 0,0 Z M381.9,181.9 C382,184.8 382.1,187.7 382.1,190.7 C382.1,280.9 313.5,384.8 188,384.8 C149.4,384.8 113.6,373.5 83.5,354.2 C88.8,354.8 94.2,355.2 99.8,355.2 C131.7,355.2 161.1,344.3 184.5,326 C154.7,325.4 129.5,305.7 120.7,278.6 C124.9,279.4 129.1,279.8 133.6,279.8 C139.8,279.8 145.8,279 151.6,277.4 C120.4,271.2 96.9,243.6 96.9,210.5 C96.9,210.2 96.9,209.9 96.9,209.6 C106.1,214.7 116.6,217.7 127.8,218.1 C109.5,205.9 97.5,185 97.5,161.4 C97.5,149 100.9,137.2 106.7,127.1 C140.3,168.4 190.6,195.5 247.3,198.4 C246.1,193.4 245.5,188.2 245.5,182.8 C245.5,145.1 276,114.6 313.7,114.6 C333.3,114.6 351,122.8 363.5,136.2 C379.1,133.2 393.6,127.5 406.8,119.6 C401.7,135.6 390.9,148.9 376.8,157.4 C390.6,155.8 403.7,152.1 416,146.7 C406.8,160.3 395.3,172.3 381.9,181.9 Z"></path>
        </g>
    </g>
</svg>