<?xml version="1.0" encoding="UTF-8"?>
<svg width="500px" height="500px" viewBox="0 0 500 500" version="1.1" xmlns="http://www.w3.org/2000/svg" xmlns:xlink="http://www.w3.org/1999/xlink">
    <!-- Generator: Sketch 52.3 (67297) - http://www.bohemiancoding.com/sketch -->
    <title>Untitled</title>
    <desc>Created with Sketch.</desc>
    <g id="Page-1" stroke="none" stroke-width="1" fill="none" fill-rule="evenodd">
        <g id="youtube" fill="#00BCBC" fill-rule="nonzero">
            <path d="M0,0 C91.8,0 425.8,0 500,0 L500,500 C425.8,500 133.6,500 0,500 L0,0 Z M216.8,292.3 L216.8,200.7 L304.9,246.7 L216.8,292.3 Z M413.6,262.3 L413.5,262.3 L413.5,237.5 C413.5,211.2 410.3,184.8 410.3,184.8 C410.3,184.8 407.1,162.3 397.3,152.5 C384.9,139.5 370.9,139.5 364.6,138.7 C318.9,135.4 250.4,135.4 250.4,135.4 L250.3,135.4 C250.3,135.4 181.8,135.4 136.1,138.7 C129.8,139.4 115.8,139.5 103.4,152.5 C93.6,162.3 90.4,184.8 90.4,184.8 C90.4,184.8 87.2,211.2 87.2,237.5 L87.2,262.2 C87.2,288.5 90.4,314.9 90.4,314.9 C90.4,314.9 93.6,337.4 103.4,347.2 C115.9,360.3 132.2,359.8 139.4,361.2 C165.6,363.7 250.3,364.5 250.3,364.5 C250.3,364.5 318.9,364.4 364.6,361.1 C370.9,360.4 384.9,360.3 397.3,347.3 C407.1,337.4 410.3,315 410.3,315 C410.3,315 413.6,288.7 413.6,262.3 Z"></path>
        </g>
    </g>
</svg>